<svg height="512" viewBox="0 0 64 64" width="512" xmlns="http://www.w3.org/2000/svg"><g id="Filled_outline" data-name="Filled outline"><path d="m56 34h-18l-2-27h22z" fill="#ececec"/><path d="m56.518 27 1.482-20h-22l1.482 20z" fill="#dd3e46"/><path d="m26 45h-18l-2-38h22z" fill="#ececec"/><path d="m9 55h16v6h-16z" fill="#92a3a8"/><g fill="#ececec"><path d="m12 58h2v3h-2z"/><path d="m16 58h2v3h-2z"/><path d="m20 58h2v3h-2z"/><path d="m12 51h10v4h-10z"/></g><path d="m24 51h-14l-2-6h18z" fill="#92a3a8"/><path d="m4 3h26v4h-26z" fill="#92a3a8"/><path d="m26.368 38 1.264-24h-21.264l1.264 24z" fill="#f9bb4b"/><path d="m21 30a4 4 0 0 1 -8 0c0-2.209 4-8 4-8s4 5.791 4 8z" fill="#f9d88e"/><path d="m12 23h-2v-6h4v2h-2z" fill="#fff"/><path d="m22 17h2v2h-2z" fill="#fff"/><path d="m42 40h10v4h-10z" fill="#ececec"/><path d="m54 40h-14l-2-6h18z" fill="#92a3a8"/><path d="m34 3h26v4h-26z" fill="#92a3a8"/><path d="m51 19a4 4 0 0 1 -8 0c0-2.209 4-8 4-8s4 5.791 4 8z" fill="#f47f90"/><path d="m44 44h6v4h-6z" fill="#92a3a8"/><path d="m49 55v-7h-4v7a6 6 0 0 0 6 6h10v-4h-10a2 2 0 0 1 -2-2z" fill="#dd3e46"/><path d="m51 27h2v3h-2z" fill="#92a3a8"/><path d="m47 27h2v3h-2z" fill="#92a3a8"/><path d="m39 10h2v2h-2z" fill="#fff"/><path d="m3 3v4a1 1 0 0 0 1 1h1.051l1.949 37.053a2.066 2.066 0 0 0 .05.263l2 6a1 1 0 0 0 .95.684h1v2h-3v8h18v-8h-3v-2h1a1 1 0 0 0 .949-.684l2-6a2.066 2.066 0 0 0 .05-.263l1.95-37.053h1.051a1 1 0 0 0 1-1v-4a1 1 0 0 0 -1-1h-26a1 1 0 0 0 -1 1zm21 53v4h-2v-2h-2v2h-2v-2h-2v2h-2v-2h-2v2h-2v-4zm-11-2v-2h8v2zm10.279-4h-12.558l-1.334-4h15.226zm1.772-6h-16.102l-.263-5h16.628zm.368-7h-16.838l-1.158-22h19.154zm1.264-24h-19.366l-.263-5h19.892zm-21.683-9h24v2h-24z"/><path d="m17 35a5.006 5.006 0 0 0 5-5c0-2.4-3.479-7.559-4.177-8.568a1.038 1.038 0 0 0 -1.646 0c-.698 1.009-4.177 6.168-4.177 8.568a5.006 5.006 0 0 0 5 5zm0-11.192c1.439 2.249 3 5.1 3 6.192a3 3 0 0 1 -6 0c0-1.092 1.561-3.942 3-6.192z"/><path d="m12 19h2v-2h-4v6h2z"/><path d="m22 17h2v2h-2z"/><path d="m46.177 10.432c-.698 1.009-4.177 6.168-4.177 8.568a5 5 0 0 0 10 0c0-2.4-3.479-7.559-4.177-8.568a1.038 1.038 0 0 0 -1.646 0zm.823 11.568a3 3 0 0 1 -3-3c0-1.092 1.561-3.942 3-6.192 1.439 2.249 3 5.1 3 6.192a3 3 0 0 1 -3 3z"/><path d="m61 56h-10a1 1 0 0 1 -1-1v-6h1v-4h2v-4h1a1 1 0 0 0 .949-.684l2-6a1.815 1.815 0 0 0 .051-.242l1.928-26.074h1.072a1 1 0 0 0 1-1v-4a1 1 0 0 0 -1-1h-26a1 1 0 0 0 -1 1v4a1 1 0 0 0 1 1h1.072l1.928 26.074a1.815 1.815 0 0 0 .048.242l2 6a1 1 0 0 0 .952.684h1v4h2v4h1v6a7.008 7.008 0 0 0 7 7h10a1 1 0 0 0 1-1v-4a1 1 0 0 0 -1-1zm-26-50v-2h24v2zm2.077 2h19.846l-1.333 18h-17.18zm1.852 25-.371-5h8.442v2h2v-2h2v2h2v-2h2.442l-.371 5zm1.792 6-1.334-4h15.226l-1.334 4zm2.279 4v-2h8v2zm2 2h4v2h-4zm15 15h-9a5.006 5.006 0 0 1 -5-5v-6h2v6a3 3 0 0 0 3 3h9z"/><path d="m39 10h2v2h-2z"/></g></svg>