<svg id="Layer_1" enable-background="new 0 0 512 512" height="512" viewBox="0 0 512 512" width="512" xmlns="http://www.w3.org/2000/svg"><g><path d="m106 85h300v324h-300z" fill="#ccf5fc"/><path d="m366 195c0 11.05-8.97 20-20.022 20h-97.956c-11.062 0-20.022-8.95-20.022-20s8.96-20 20.022-20c5.076 0 9.701 1.89 13.234 5 0-9.66 3.924-18.42 10.261-24.75 6.347-6.33 15.096-10.25 24.777-10.25 19.351 0 35.038 15.67 35.038 35 0 .47-.01.94-.03 1.41 3.644-3.94 8.87-6.41 14.676-6.41 11.052 0 20.022 8.95 20.022 20z" fill="#fff"/><path d="m106 409v-46.002l83-74.998 57 29 70-62 90 85v69z" fill="#5cd0b3"/><circle cx="171" cy="159" fill="#ffc144" r="25"/><g fill="#ffda8f"><path d="m236 10h40v55h-40z"/><path d="m371 502h-40l-15-73h40z"/><path d="m181 502h-40l15-73h40z"/><path d="m236 429h40v40h-40z"/></g><path d="m206 65h100v40h-100z" fill="#dd9366"/><path d="m236 309h40v200h-40z" fill="#dd9366" transform="matrix(0 1 -1 0 665 153)"/><g><path d="m339.041 165.817c-5.96-17.884-22.871-30.817-42.747-30.817-12.017 0-23.323 4.677-31.844 13.175-4.971 4.965-8.637 10.888-10.826 17.352-1.835-.349-3.71-.527-5.603-.527-16.553 0-30.021 13.458-30.021 30s13.468 30 30.021 30h97.957c16.554 0 30.022-13.458 30.022-30s-13.468-30-30.021-30c-2.353 0-4.681.279-6.938.817zm16.959 29.183c0 5.514-4.496 10-10.021 10h-97.957c-5.525 0-10.021-4.486-10.021-10s4.496-10 10.021-10c3.124 0 5.328 1.363 6.627 2.506 2.949 2.596 7.145 3.225 10.727 1.606 3.58-1.618 5.881-5.183 5.881-9.112 0-6.677 2.603-12.954 7.323-17.669 4.739-4.727 11.031-7.331 17.715-7.331 13.806 0 25.038 11.215 25.038 25 0 .331-.007.663-.021.994-.174 4.188 2.282 8.041 6.153 9.649 3.868 1.609 8.334.632 11.18-2.444 1.908-2.063 4.513-3.199 7.334-3.199 5.525 0 10.021 4.486 10.021 10z"/><path d="m171 124c-19.299 0-35 15.701-35 35s15.701 35 35 35 35-15.701 35-35-15.701-35-35-35zm0 50c-8.271 0-15-6.729-15-15s6.729-15 15-15 15 6.729 15 15-6.729 15-15 15z"/><path d="m413.07 77.928c-1.86-1.86-4.44-2.93-7.07-2.93h-90v-10c0-5.52-4.48-10-10-10h-20v-44.998c0-5.523-4.478-10-10-10h-40c-5.522 0-10 4.477-10 10v44.998h-20c-5.52 0-10 4.48-10 10v10h-90c-2.63 0-5.21 1.07-7.07 2.93s-2.93 4.44-2.93 7.07v324c0 2.63 1.07 5.21 2.93 7.07s4.44 2.93 7.07 2.93h40v8.987l-14.795 72.002c-.605 2.943.146 6.003 2.045 8.332s4.745 3.681 7.75 3.681h40c4.747 0 8.84-3.337 9.795-7.987l13.359-65.015h21.846v30.002c0 5.523 4.478 10 10 10h40c5.522 0 10-4.477 10-10v-30.002h21.846l13.359 65.015c.955 4.65 5.048 7.987 9.795 7.987h40c3.005 0 5.851-1.352 7.75-3.681s2.65-5.389 2.045-8.332l-14.795-72.002v-8.987h40c2.63 0 5.21-1.07 7.07-2.93s2.93-4.44 2.93-7.07v-117c0-5.51-4.49-10-10-10s-10 4.49-10 10v24.8l-73.13-69.07c-3.77-3.55-9.62-3.65-13.5-.21l-64.9 57.48-50.94-25.91c-3.69-1.88-8.16-1.29-11.23 1.49l-66.3 59.91v-245.49h80v10c0 5.52 4.48 10 10 10h100c5.52 0 10-4.48 10-10v-10h80v107c0 5.52 4.49 10 10 10s10-4.48 10-10v-117c0-2.63-1.07-5.21-2.93-7.07zm-147.07 381.072h-20v-20h20zm80-40.002h-180v-20h180zm-173.154 73.002h-19.582l10.891-53h19.582zm166.308 0-10.891-53h19.582l10.891 53zm-148.554-191.962 50.87 25.87c3.66 1.87 8.08 1.3 11.16-1.42l63.15-55.94 80.22 75.76v54.69h-30v-10c0-5.52-4.48-10-10-10h-200c-5.52 0-10 4.48-10 10v10h-30v-31.56zm55.4-280.038h20v34.998h-20zm-30 74.998v-20h80v20z"/><circle cx="406" cy="246.998" r="10"/></g></g></svg>