<svg height="511pt" viewBox="0 -82 511.99949 511" width="511pt" xmlns="http://www.w3.org/2000/svg"><path d="m408.554688 61.9375c-4.914063 0-9.875-.300781-14.746094-.886719-4.867188-.582031-11.167969-1.613281-16.714844-4.46875l-2.304688-1.183593 1.730469-1.929688c2.589844-2.890625 6.546875-5.042969 12.449219-6.765625 6.722656-1.964844 13.804688-2.960937 21.050781-2.960937 3.796875 0 7.625.28125 11.378907.832031 4.21875.621093 14.386718 2.785156 17.648437 9.496093l.789063 1.621094-1.53125.953125c-.128907.078125-.273438.160157-.4375.242188-5.925782 3.09375-12.8125 4.054687-18.148438 4.539062-3.683594.339844-7.441406.511719-11.164062.511719zm0 0" fill="#644c4c"/><path d="m112.625 42.773438c-9.757812 0-19.386719-1.457032-28.632812-4.328126-3.109376-.960937-4.691407-2.066406-4.976563-3.488281-.542969-2.164062 2.511719-4.4375 5.789063-5.691406 10.707031-4.140625 22.34375-6.152344 35.5625-6.152344 1.175781 0 2.363281.011719 3.570312.039063 18.648438.53125 23.503906 5.058594 24.292969 8.765625l.058593.269531-.019531.277344c-.105469 1.585937-2.121093 3.210937-3.820312 4.121094-3.699219 1.976562-8.105469 3.40625-13.871094 4.5-5.882813 1.121093-11.925781 1.6875-17.953125 1.6875zm0 0" fill="#644c4c"/><path d="m475.710938 231.226562c.484374-2.347656.933593-4.863281 1.449218-8.164062 2.8125-17.996094 2.453125-36.242188 1.828125-50.128906-1.46875-32.8125-5.546875-59.171875-12.832031-82.945313l-.582031-1.886719 1.882812-.601562c5.742188-1.839844 10.113281-3.898438 13.753907-6.488281l1.722656-1.226563 1.125 1.792969c16.71875 26.582031 24.253906 58.414063 21.21875 89.628906-1.441406 14.914063-5.160156 28.359375-11.046875 39.960938-3.804688 7.488281-8.875 14.820312-15.070313 21.792969l-4.972656 5.601562zm0 0" fill="#ed6d66"/><path d="m415.433594 330.09375c-1.695313-19.746094-.699219-39.617188 2.957031-59.058594l.296875-1.5625 1.585938-.066406c3.773437-.15625 7.394531-.578125 10.761718-1.253906 5.726563-1.144532 11.53125-3.125 17.253906-5.890625l1.238282-.597657 1.003906.945313c4.402344 4.160156 9.957031 9.800781 13.824219 16.570313 6.3125 11.09375 6.382812 28.742187 3.246093 39.722656l-.226562.792968-.71875.402344c-10.660156 5.988282-23.921875 9.765625-39.421875 11.226563-3.230469.300781-6.511719.503906-9.746094.597656l-1.890625.054687zm0 0" fill="#ed6d66"/><path d="m415.71875 263.511719c-.695312-14.171875.050781-28.578125.769531-42.511719.140625-2.609375.28125-5.226562.410157-7.835938 1.871093-38.394531 1.808593-77.398437 1.75-115.117187l-.359376-2.304687 2.230469-.097657c7.082031-.304687 14.277344-1.046875 21.386719-2.203125l1.714844-.28125.515625 1.664063c7.613281 24.570312 9.046875 50.679687 9.941406 77.503906.785156 23.789063 1.105469 46.976563-3.503906 69.183594-.386719 1.871093-.652344 3.542969-.886719 5.019531-.65625 4.199219-1.128906 7.21875-3.753906 11.429688-.078125.128906-.136719.242187-.175782.355468l-.285156.792969-.769531.347656c-4.800781 2.171875-9.667969 3.757813-14.46875 4.710938-3.921875.785156-8.128906 1.207031-12.5 1.246093l-1.921875.019532zm0 0" fill="#ed6d66"/><path d="m393.84375 262.371094c-10.84375-2.695313-20.695312-6.644532-29.355469-11.753906l-.691406-.410157-.214844-.765625c-4.503906-9.5625-5.285156-20.464844-5.703125-30.816406-1.828125-44.890625 2.769532-87.296875 13.664063-126.042969l.523437-1.867187 1.882813.46875c7.519531 1.863281 15.324219 3.183594 23.195312 3.917968l1.867188.175782-3.375 111.445312c-.367188 12.199219-.746094 24.8125-.300781 37.25.171874 4.820313.492187 10.519532 1.546874 16.226563l.554688 2.992187zm0 0" fill="#ed6d66"/><path d="m390.109375 329.921875c-12.480469-2.28125-23.929687-6.453125-34.035156-12.394531-.214844-.125-.800781-.488282-.800781-.488282l-.734376-.449218-.179687-.84375c-4.136719-19.566406 3.117187-41.625 18.050781-54.917969l.113282-.117187.953124-.957032 1.242188.527344c5.742188 2.433594 11.828125 4.457031 18.082031 6.011719 1.8125.445312 3.648438.851562 5.445313 1.207031l2.214844.4375-.703126 2.148438c-4.640624 14.167968-7.375 28.84375-8.132812 43.617187-.207031 4.214844-.273438 9.15625.789062 13.800781l.683594 2.960938zm0 0" fill="#ed6d66"/><path d="m334.835938 222.59375c-7.8125-11.265625-13.769532-24.238281-17.707032-38.558594-10.480468-38.117187-4.492187-78.777344 16.015625-108.761718l1.230469-1.792969 1.683594 1.375c4.664062 3.796875 10.117187 6.433593 13.8125 8.082031.40625.183594.796875.351562 1.191406.519531l2.304688.992188-.722657 1.804687c-18.097656 45.339844-23.144531 93.207032-14.210937 134.78125zm0 0" fill="#ed6d66"/><path d="m233.570312 240.4375c3.953126-7.453125 6.789063-16.433594 8.675782-27.460938 8.824218-51.601562 4.351562-99.074218-12.929688-137.289062l-.960937-2.125 2.246093-.625c9.179688-2.554688 17.796876-5.804688 25.613282-9.65625l1.726562-.851562.914063 1.691406c.089843.167968.183593.3125.277343.429687 23.394532 28.878907 32.898438 69.398438 24.765626 105.710938-6.3125 28.230469-23.574219 54.734375-47.355469 72.707031zm0 0" fill="#ed6d66"/><path d="m182.679688 336.304688c6.289062-11.332032 8.996093-25.921876 7.0625-38.085938-1.46875-9.164062-5.175782-17.722656-8.53125-25.027344l-1.074219-2.335937 2.523437-.46875c10.949219-2.027344 21.347656-5.160157 30.910156-9.308594l1.519532-.65625.929687 1.367187c.058594.082032.144531.179688.257813.285157 15.503906 14.679687 22.5625 37.640625 17.972656 58.492187-.113281.515625.007812.960938.128906 1.246094l.722656 1.691406-1.628906.859375c-.585937.308594-1.167968.605469-1.742187.890625-14.074219 7.007813-29.898438 11.71875-47.039063 14.003906l-3.945312.527344zm0 0" fill="#ed6d66"/><path d="m180.144531 263.816406c14.191407-52.871094 13.359375-113.902344-2.277343-167.441406-1.335938-4.578125-2.746094-8.992188-4.1875-13.121094l-.894532-2.5625 2.710938-.097656c10.160156-.363281 19.300781-1.089844 27.941406-2.222656l1.4375-.191406.625 1.308593c10.160156 21.183594 14.566406 44.378907 17.816406 66.292969 1.488282 9.964844 3.039063 21.566406 2.628906 33.09375-.578124 15.964844-4.886718 31.636719-9.050781 46.796875-3.398437 12.417969-7.253906 26.496094-16.769531 35.289063-.097656.089843-.210938.242187-.34375.457031l-.390625.640625-.71875.226562c-5.191406 1.617188-10.652344 2.964844-16.226563 4.015625l-3.125.585938zm0 0" fill="#ed6d66"/><path d="m154.121094 340.84375c-13.511719-.304688-27.757813-1.855469-43.546875-4.753906l-.867188-.160156-.46875-.75c-.058593-.097657-.113281-.199219-.164062-.300782-2.453125-3.859375-3.441407-8.996094-3.105469-16.140625.789062-16.960937 7.710938-34.050781 18.996094-46.875l.722656-.820312 1.078125.164062c8.511719 1.277344 17.160156 1.925781 25.703125 1.925781.859375 0 1.722656-.007812 2.585938-.019531.082031-.003906.167968-.007812.25-.007812h1.082031l.589843.902343c5.191407 7.917969 7.789063 18.277344 8.167969 32.605469.40625 15.429688-2.433593 25.847657-8.941406 32.789063-.117187.125-.222656.296875-.300781.433594l-.59375 1.035156zm0 0" fill="#ed6d66"/><path d="m152.523438 269.070312c-8.5 0-17.019532-.640624-25.328126-1.898437l-1.339843-.203125-.308594-1.324219c-13.75-59.558593-4.484375-124.347656 25.425781-177.757812l2.679688-4.789063 3.003906 15.765625c1.933594 10.109375 3.933594 20.5625 5.457031 30.917969 6.664063 45.40625 4.8125 91.0625-5.5 135.714844-.070312.3125-.054687.644531.046875 1.015625l.707032 2.507812-2.605469.035157c-.746094.007812-1.492188.015624-2.238281.015624zm0 0" fill="#ed6d66"/><path d="m99.382812 260.398438c-6.648437-2.269532-13.140624-4.984376-19.292968-8.078126l-.480469-.242187-.296875-.449219c-.054688-.085937-.109375-.152344-.15625-.199218-4.847656-4.792969-6.703125-11.902344-8.0625-18.191407-11.273438-52.152343-2.941406-108.84375 22.851562-155.539062l.679688-1.230469 1.386719.222656c10.867187 1.722656 22.300781 2.871094 34.957031 3.503906l3.347656.167969-1.738281 2.867188c-32.28125 53.203125-43.433594 116.929687-30.597656 174.839843l.769531 3.476563zm0 0" fill="#ed6d66"/><path d="m83.628906 330.226562-1.820312-.4375c-10.636719-2.679687-22.652344-6.183593-30.894532-13.960937l-.730468-.691406.117187-1c1.246094-10.414063 2.972657-21.464844 7.1875-31.703125 4.734375-11.496094 12.277344-20.488282 21.242188-25.320313l.894531-.480469.917969.441407c5.554687 2.664062 11.273437 5.015625 16.996093 6.980469l2.792969.957031-1.929687 2.238281c-7.035156 8.160156-11.894532 17.976562-14.054688 28.390625-2.207031 10.566406-1.628906 21.644531 1.667969 32.039063l1.074219 3.398437zm0 0" fill="#ed6d66"/><path d="m42.933594 225.332031c-20.148438-20.675781-32.976563-46.789062-36.125-73.523437-4.027344-34.367188 8.4375-69.777344 32.527344-92.410156l1.175781-1.105469 1.328125.910156c7.699218 5.28125 16.414062 8.347656 23.148437 10.429687 0 0 .402344.121094.503907.15625l2.242187.753907-1.117187 2.085937c-19.75 36.90625-28.902344 80.175782-25.777344 121.847656.546875 7.253907 1.699218 18.128907 5.414062 28.800782zm0 0" fill="#ed6d66"/><g fill="#f9d889"><path d="m473.183594 311.59375c1.628906-12.875-.355469-25.738281-5.304688-34.417969-3.808594-6.695312-9.066406-12.179687-12.691406-15.722656l-1.84375-1.804687 2.207031-1.335938c2.351563-1.417969 4.6875-2.980469 6.945313-4.632812l1.402344-1.023438 1.210937 1.242188c7.75 7.957031 14.050781 17.0625 18.730469 27.066406 2.246094 4.800781 4.671875 11.082031 3.488281 17.105468-.863281 4.363282-3.613281 8.65625-8.40625 13.125-.734375.6875-1.542969 1.402344-2.46875 2.179688l-3.910156 3.289062zm0 0"/><path d="m412.867188 91.773438c-22.109376 0-42.746094-4.222657-61.335938-12.542969-4.207031-1.886719-9.585938-4.539063-13.886719-8.335938-2-1.777343-3.65625-3.726562-4.921875-5.796875l3.050782-2.523437c2.917968 2.664062 6.683593 5.109375 11.191406 7.277343 16.878906 8.144532 36.796875 12.101563 60.890625 12.101563 3.757812 0 7.671875-.097656 11.640625-.296875 28.261718-1.390625 49.589844-7.691406 65.199218-19.257812l4.09375-3.035157-.933593 5.007813c-.746094 3.980468-3.03125 8.082031-6.121094 10.972656-5.40625 5.085938-12.84375 7.636719-20.074219 9.636719-16.269531 4.507812-32.683594 6.792969-48.792968 6.792969zm0 0"/><path d="m407.878906 77.890625c-23.472656 0-42.820312-3.824219-59.148437-11.695313-9.363281-4.515624-14.804688-9.925781-16.175781-16.085937-.03125-.144531-.066407-.257813-.113282-.359375l-.460937-.996094.597656-.925781c1.179687-1.820313 2.648437-3.46875 4.371094-4.898437 4.027343-3.320313 8.964843-5.359376 13.269531-6.914063 4.714844-1.710937 9.710938-3.1875 14.855469-4.386719 5.164062-1.207031 10.492187-2.140625 15.835937-2.78125 8.019532-.960937 15.828125-1.449218 23.199219-1.449218 11.230469 0 21.367187 1.113281 30.136719 3.316406 0 0 3.855468.953125 5.175781 1.277344 14.125 3.457031 27.457031 6.722656 39.480469 15.464843 2.285156 1.65625 5.148437 3.929688 7.039062 6.835938l1.398438 2.140625-2.414063.839844c-.261719.09375-.457031.191406-.609375.316406-15.054687 12.046875-36.320312 18.589844-65.019531 20.011718-3.894531.191407-7.738281.289063-11.417969.289063zm2.140625-38.210937c-7.648437 0-15.117187 1.054687-22.203125 3.125-4.765625 1.394531-11.570312 3.902343-15.59375 9.523437-.371094.515625-1.351562 1.890625-1.132812 3.578125.246094 1.855469 1.679687 2.910156 2.902344 3.621094 6.359374 3.621094 13.667968 4.875 19.328124 5.5625 5.023438.605468 10.144532.914062 15.214844.914062 3.847656 0 7.734375-.179687 11.558594-.53125 5.707031-.523437 13.101562-1.5625 19.6875-5.003906.90625-.476562 3.269531-1.726562 3.71875-4.203125.246094-1.339844-.179688-2.5625-.578125-3.472656-3.726563-8.507813-14.71875-11.320313-20.9375-12.242188-3.945313-.578125-7.96875-.871093-11.964844-.871093zm0 0"/><path d="m453.011719 251.109375c.265625-1.257813.46875-2.53125.683593-3.878906.269532-1.738281.515626-3.21875.863282-4.902344 4.691406-22.648437 4.367187-46.101563 3.570312-70.136719-.882812-26.746094-2.296875-52.8125-9.824218-77.648437l-.636719-2.097657 2.148437-.441406c3.164063-.648437 6.429688-1.414062 9.984375-2.34375l1.855469-.484375.5625 1.832031c7.210938 23.457032 11.25 49.550782 12.707031 82.109376.613281 13.742187.96875 31.765624-1.78125 49.316406-1.265625 8.054687-2.820312 16.449218-6.664062 22.816406l-.171875.285156-.257813.214844c-3.332031 2.789062-6.695312 5.296875-9.988281 7.449219l-4.054688 2.648437zm0 0"/><path d="m409.449219 265.054688c-2.160157-.203126-4.195313-.460938-6.226563-.785157l-1.3125-.210937-.316406-1.289063c-1.554688-6.359375-1.972656-12.863281-2.195312-18.941406-.445313-12.449219-.0625-25.085937.308593-37.304687l3.359375-110.957032 2.027344.089844c2.480469.105469 5.011719.167969 7.519531.175781l1.992188.007813v1.992187c0 .101563-.007813.207031-.019531.316407.058593 37.636718.121093 76.554687-1.75 114.8125-.117188 2.539062-.253907 5.074218-.390626 7.621093l-.011718.207031c-.714844 13.792969-1.457032 28.054688-.796875 42.179688l.105469 2.304688zm0 0"/><path d="m409.277344 331.914062c-3.558594-.109374-6.890625-.335937-10.191406-.691406l-1.195313-.128906-.449219-1.113281c-2.011718-5.007813-2.03125-10.683594-1.75-16.070313.746094-14.832031 3.550782-29.566406 8.339844-43.785156l.523438-1.546875 1.617187.203125c2.101563.257812 4.15625.441406 6.101563.546875l2.265624.121094-.402343 2.234375c-3.476563 19.140625-4.417969 38.675781-2.804688 58.066406l.183594 2.234375zm0 0"/><path d="m345.722656 309.484375c-.699218-.796875-1.332031-1.621094-1.886718-2.445313-5.644532-8.449218-4.320313-19.226562-3.027344-24.898437 2.523437-11.097656 8.558594-21.445313 16.992187-29.132813l1.121094-1.023437 1.285156.804687c2.140625 1.335938 4.433594 2.640626 6.820313 3.882813l2.441406 1.265625-1.957031 1.929688c-12.558594 12.410156-19.394531 30.417968-18.289063 48.175781l.367188 5.851562zm0 0"/><path d="m353.070312 242.625c-1.152343-.957031-2.273437-1.925781-3.328124-2.878906l-.277344-.253906-.167969-.335938c-.050781-.097656-.109375-.199219-.179687-.292969-2.988282-3.925781-4.425782-9.042969-5.53125-13.527343-10.363282-42.03125-5.804688-90.890626 12.832031-137.582032l.71875-1.804687 1.824219.667969c2.363281.859374 4.824218 1.6875 7.324218 2.457031l1.863282.574219-.527344 1.878906c-11 39.144531-15.644532 81.964844-13.808594 127.265625.277344 6.675781.71875 14.421875 2.480469 21.832031l1.382812 5.808594zm0 0"/><path d="m159.414062 76.796875c-1.808593 0-3.601562-.007813-5.382812-.023437-24.96875-.199219-57.515625-1.636719-87.84375-11.019532-7.207031-2.226562-16.453125-5.527344-24.035156-11.320312-4.132813-3.152344-6.53125-6.292969-7.339844-9.59375-.554688-2.304688-.34375-4.75.628906-7.273438l1.546875-4.019531 2.070313 3.773437c5.714844 10.402344 17.691406 18.382813 34.632812 23.085938 15.773438 4.371094 32.847656 6.410156 53.734375 6.410156 7.777344 0 15.957031-.273437 26.515625-.878906 24.5-1.425781 44.699219-3.75 63.5625-7.308594 13.976563-2.625 24.464844-5.476562 34.007813-9.234375 5.445312-2.136719 12.296875-5.300781 17.007812-10.871093l3.058594-3.613282.457031 4.710938c.910156 9.335937-10.210937 16.191406-15.035156 18.707031-31.371094 16.371094-68.632812 18.46875-97.585938 18.46875zm0 0"/><path d="m127.457031 62.75c-20.539062 0-37.277343-1.988281-52.683593-6.257812-12.300782-3.414063-28.121094-10.375-33.625-24.167969-.054688-.132813-.117188-.25-.183594-.347657l-.980469-1.410156 1.246094-1.183594c1.234375-1.167968 2.542969-2.25 3.894531-3.214843 13.648438-9.707031 31.121094-13.269531 46.417969-15.472657 15.296875-2.203124 31.222656-3.539062 47.339843-3.972656 3.9375-.105468 7.964844-.160156 11.96875-.160156 23.089844 0 47.25 1.777344 71.808594 5.28125 10.488282 1.488281 18.554688 2.875 26.828125 7.21875l2.589844 1.332031c5.507813 2.820313 11.75 6.019531 15.824219 10.542969l1.914062 2.125-2.652344 1.066406c-.351562.144532-.644531.367188-.859374.664063-4.035157 5.507812-10.824219 8.679687-16.285157 10.824219-9.28125 3.652343-19.542969 6.4375-33.261719 9.023437-18.707031 3.523437-38.742187 5.824219-63.042968 7.238281-10.261719.59375-18.601563.871094-26.257813.871094zm-7.050781-43.707031c-13.714844 0-25.839844 2.105469-37.070312 6.425781-6.144532 2.367188-9.296876 6.425781-8.230469 10.589844 1.074219 4.222656 6.050781 5.769531 7.683593 6.273437 9.644532 2.988281 19.679688 4.503907 29.828126 4.503907 6.261718 0 12.5625-.589844 18.730468-1.757813 6.214844-1.183594 10.992188-2.746094 15.023438-4.914063 4.367187-2.339843 6.542968-5.738281 5.832031-9.09375-1.59375-7.484374-11.0625-11.515624-28.148437-11.976562-1.226563-.03125-2.445313-.050781-3.648438-.050781zm0 0"/><path d="m239.019531 317.015625c2.9375-20.246094-4.105469-41.835937-18.378906-56.339844l-1.890625-1.917969 2.386719-1.253906c1.144531-.601562 2.289062-1.214844 3.425781-1.847656l1.320312-.734375 1.148438 1.15625c8.023438 6.484375 16.890625 14.460937 21.96875 24.492187 6.394531 12.664063 4.359375 24.128907.324219 30.636719-1.695313 2.753907-4.019531 5.265625-7.097657 7.671875l-3.925781 3.074219zm0 0"/><path d="m210.777344 253.917969c4.886718-8.378907 7.625-18.363281 10.039062-27.171875 4.226563-15.421875 8.589844-31.34375 9.179688-47.722656.433594-11.71875-1.144532-23.613282-2.65625-33.847657-3.191406-21.449219-7.476563-44.203125-17.128906-65.25l-1.089844-2.371093 2.574218-.433594c3.703126-.625 7.421876-1.363282 11.054688-2.195313l1.582031-.363281.679688 1.472656c17.460937 37.691406 22.039062 84.808594 13.238281 136.257813-3.148438 18.398437-8.96875 30.832031-18.878906 40.304687-.21875.214844-.390625.496094-.503906.839844l-.261719.777344-.976563.5c-.425781.214844-.84375.429687-1.269531.628906-.988281.480469-2.007813.949219-3.039063 1.40625l-5.664062 2.523438zm0 0"/><path d="m162.59375 337.75c6.394531-9.929688 6.839844-22.585938 6.613281-31.242188-.214843-8.191406-1.132812-20.300781-6.589843-30.875l-1.394532-2.707031 3.035156-.207031c3.429688-.234375 6.867188-.585938 10.222657-1.035156l1.457031-.199219.625 1.335937c4.023438 8.648438 7.75 17.148438 9.160156 26.042969 2.0625 12.902344-1.425781 28.292969-8.894531 39.210938-.132813.199219-.230469.425781-.292969.6875l-.328125 1.433593-1.46875.113282c-3.539062.269531-7.042969.449218-10.414062.523437l-3.769531.085938zm0 0"/><path d="m160.597656 266.304688c10.402344-45.144532 12.265625-91.273438 5.53125-137.109376-1.566406-10.664062-3.664062-21.625-5.515625-31.292968l-3.253906-17.035156h2.417969c2.398437 0 4.828125-.023438 7.277344-.0625l1.429687-.023438.484375 1.347656c1.789062 4.984375 3.46875 10.160156 4.996094 15.386719 15.832031 54.21875 16.296875 115.726563 1.285156 168.757813l-.359375 1.265624-1.308594.171876c-3.664062.472656-7.335937.824218-10.914062 1.039062l-2.671875.164062zm0 0"/><path d="m118.5 265.613281c-3.429688-.714843-6.824219-1.535156-10.085938-2.441406l-1.128906-.3125-.28125-1.140625c-14.503906-59.296875-3.339844-124.535156 30.636719-178.992188.101563-.160156.179687-.367187.242187-.625l.378907-1.589843 1.632812.054687c2.410157.078125 4.769531.140625 7.078125.179688l3.382813.054687-1.683594 2.9375c-30.75 53.628907-40.886719 119.050781-27.808594 179.492188l.652344 3.007812zm0 0"/><path d="m100.878906 334.183594c-2.761718-.574219-5.3125-1.132813-7.808594-1.699219l-1-.230469-.398437-.949218c-4.570313-10.929688-5.761719-23.300782-3.351563-34.839844 2.265626-10.875 7.8125-21.261719 15.625-29.25l.832032-.847656 1.148437.324218c3.875 1.101563 7.851563 2.078125 11.828125 2.90625l3.140625.652344-1.96875 2.53125c-10.207031 13.121094-16.25 29.375-17.023437 45.765625-.148438 3.328125-.175782 8.308594 1.296875 13.089844l.996093 3.234375zm0 0"/><path d="m66.246094 244.402344c-2.175782-1.414063-4.355469-2.917969-6.46875-4.460938l-.496094-.363281-.207031-.578125c-.082031-.230469-.179688-.417969-.300781-.574219-10.480469-13.558593-12.941407-31.75-13.878907-44.25-3.121093-41.582031 6.171875-84.625 26.15625-121.210937l.75-1.371094 1.511719.394531c4.769531 1.25 9.613281 2.34375 14.390625 3.261719l2.671875.511719-1.28125 2.398437c-25.210938 47.046875-33.21875 103.882813-21.96875 155.929688.714844 3.277344 1.367188 5.75 2.113281 8.007812l1.789063 5.410156zm0 0"/><path d="m43.632812 305.191406c-3.246093-8.304687-2.867187-18.527344 1.011719-27.34375 5.453125-12.335937 15.929688-20.265625 23.757813-24.75.160156-.09375.320312-.226562.480468-.410156l1.082032-1.234375 1.417968.816406s.828126.460938 1 .5625l2.710938 1.558594-2.554688 1.804687c-7.980468 5.648438-14.484374 14.1875-18.804687 24.699219-2.769531 6.71875-4.761719 14.304688-6.261719 23.878907l-1.148437 7.308593zm0 0"/></g><path d="m278.0625 38.917969c-1.324219-12.714844-13.984375-19.195313-23.226562-23.921875-.871094-.449219-1.71875-.882813-2.527344-1.304688-9.09375-4.769531-18.042969-6.320312-28.796875-7.851562-29.25-4.167969-57.777344-5.9101565-84.792969-5.179688-16.363281.445313-32.527344 1.800782-48.039062 4.035156-16.011719 2.308594-34.359376 6.074219-49.0625 16.53125-10.03125 7.132813-14.773438 16.496094-12.691407 25.046876.808594 3.335937 2.640625 6.4375 5.515625 9.40625-25.011718 23.984374-37.875 60.824218-33.648437 96.835937 4.128906 35.160156 23.59375 68.269531 53.410156 90.84375 2.785156 2.113281 5.660156 4.121094 8.605469 6.03125-8.238282 5.152344-18.199219 13.527344-23.703125 26.007813-5.753907 13.039062-4.894531 27.789062 2.238281 38.488281 1.050781 1.578125 2.210938 3.039062 3.460938 4.402343.230468.3125.507812.589844.816406.828126 8.785156 8.964843 21.738281 13.289062 34.695312 16.542968 30.113282 7.5625 54.675782 11.15625 77.308594 11.304688.488281.003906.96875.007812 1.457031.007812 28.285157-.003906 53.632813-5.480468 75.351563-16.292968 6.710937-3.34375 15.058594-8.210938 20.050781-16.273438 6.253906-10.09375 6.222656-24.109375-.078125-36.566406-5.167969-10.226563-13.613281-18.269532-21.582031-24.855469 28.339843-18.480469 49.621093-48.480469 56.992187-81.398437 8.484375-37.882813-1.339844-80.125-25.625-110.414063 9.832032-6.28125 14.726563-14.0625 13.871094-22.253906zm-21.988281 17.636719c-31.699219 16.542968-69.355469 18.5-102.023438 18.222656-24.839843-.207032-57.210937-1.636719-87.273437-10.933594-7.050782-2.179688-16.082032-5.402344-23.410156-11.003906-3.757813-2.871094-5.921876-5.644532-6.609376-8.476563-.492187-2.027343-.222656-4.082031.546876-6.074219 5.992187 10.890626 18.269531 19.164063 35.851562 24.042969 17.96875 4.980469 36.316406 6.484375 54.269531 6.484375 9.007813 0 17.921875-.378906 26.636719-.886718 24.566406-1.425782 44.839844-3.753907 63.8125-7.332032 14.101562-2.65625 24.699219-5.535156 34.367188-9.339844 5.765624-2.265624 12.859374-5.59375 17.804687-11.441406.789063 8.113282-9.5 14.40625-13.972656 16.738282zm-39.109375 196.253906c-.484375.242187-.964844.492187-1.453125.730468-.988281.476563-1.992188.933594-3 1.386719 5-8.570312 7.734375-18.53125 10.234375-27.652343 4.257812-15.511719 8.65625-31.554688 9.257812-48.175782.429688-11.964844-1.160156-23.933594-2.6875-34.210937-3.226562-21.714844-7.578125-44.617188-17.292968-65.792969 3.738281-.632812 7.464843-1.367188 11.175781-2.21875 17.285156 37.332031 21.804687 84.039062 13.074219 135.082031-3.070313 17.945313-8.710938 30.03125-18.285157 39.195313-.496093.472656-.824219 1.046875-1.023437 1.65625zm-41.785156 84.136718c-.289063.425782-.480469.890626-.589844 1.367188-3.386719.265625-6.824219.441406-10.316406.523438 6.605468-10.25 7.171874-23.09375 6.929687-32.382813-.226563-8.71875-1.238281-20.9375-6.808594-31.738281 3.488281-.242188 6.941407-.59375 10.359375-1.046875 3.8125 8.207031 7.589844 16.675781 9 25.5 1.980469 12.441406-1.382812 27.269531-8.574218 37.777343zm-81.664063-6.414062c-4.414063-10.5625-5.574219-22.441406-3.238281-33.65625 2.210937-10.609375 7.53125-20.515625 15.101562-28.261719 3.933594 1.121094 7.925782 2.101563 11.96875 2.9375-10.371094 13.335938-16.65625 30.082031-17.4375 46.90625-.175781 3.785157-.144531 8.824219 1.371094 13.769531-2.546875-.535156-5.128906-1.09375-7.765625-1.695312zm-33.15625-93.324219c-10.152344-13.128906-12.550781-30.933593-13.472656-43.1875-3.09375-41.203125 6.109375-83.832031 25.917969-120.101562 4.824218 1.261719 9.675781 2.363281 14.519531 3.292969-25.453125 47.5-33.539063 104.648437-22.152344 157.308593.59375 2.742188 1.273437 5.515625 2.164063 8.199219-2.171876-1.40625-4.300782-2.871094-6.382813-4.390625-.140625-.394531-.324219-.777344-.59375-1.121094zm20.628906 13.328125c-.136719-.195312-.285156-.386718-.460937-.5625-4.421875-4.371094-6.175782-11.148437-7.476563-17.15625-11.175781-51.6875-2.917969-107.859375 22.644531-154.148437 12.09375 1.914062 24 2.964843 35.175782 3.53125-32.703125 53.886719-43.839844 117.660156-30.84375 176.304687-6.566406-2.238281-12.925782-4.902344-19.039063-7.96875zm86.101563-167.730468c1.742187 4.847656 3.410156 9.96875 4.960937 15.273437 15.738281 53.902344 16.191407 114.945313 1.277344 167.644531-3.550781.464844-7.144531.8125-10.78125 1.035156 10.460937-45.390624 12.335937-91.769531 5.5625-137.855468-1.550781-10.554688-3.574219-21.140625-5.53125-31.375l-2.804687-14.664063c2.417968-.003906 4.859374-.023437 7.316406-.058593zm-39.585938 182.386718c-13.707031-59.339844-4.523437-123.21875 25.210938-176.324218l1.941406 10.171874c1.941406 10.15625 3.949219 20.65625 5.476562 31.035157 6.628907 45.125 4.789063 90.535156-5.464843 134.972656-.160157.691406-.113281 1.371094.066406 2.003906-9.210937.128907-18.324219-.507812-27.230469-1.859375zm-8.597656-1.539062c-3.359375-.695313-6.679688-1.5-9.960938-2.40625-14.382812-58.78125-3.320312-123.425782 30.394532-177.460938.238281-.386718.386718-.796875.484375-1.214844 2.421875.074219 4.789062.128907 7.113281.171876-31.117188 54.273437-41.261719 119.769531-28.03125 180.910156zm-8.097656 70.226562c-2.253906-3.511718-3.160156-8.292968-2.84375-15.046875.773437-16.617187 7.503906-33.148437 18.503906-45.648437 8.519531 1.285156 17.214844 1.949218 26.003906 1.949218.863282 0 1.734375-.007812 2.601563-.019531.078125 0 .152343-.003906.230469-.007812 4.976562 7.582031 7.476562 17.640625 7.839843 31.558593.386719 14.867188-2.28125 24.835938-8.398437 31.367188-.234375.253906-.417969.53125-.574219.816406-13.363281-.304687-27.527344-1.84375-43.238281-4.726562-.046875-.078125-.074219-.164063-.125-.242188zm68.980468-238.058594c-1.328124-4.550781-2.742187-8.980468-4.21875-13.226562 9.238282-.328125 18.675782-.996094 28.125-2.242188 9.992188 20.828126 14.398438 43.871094 17.644532 65.71875 1.472656 9.921876 3.011718 21.453126 2.605468 32.734376-.566406 15.683593-4.839843 31.265624-8.972656 46.335937-3.339844 12.164063-7.121094 25.953125-16.203125 34.355469-.285156.261718-.503906.5625-.695312.878906-5.164063 1.609375-10.515625 2.925781-16 3.960938 14.300781-53.289063 13.511719-114.417969-2.285157-168.515626zm-87.964843-83.144531c15.207031-2.1875 31.058593-3.519531 47.109375-3.953125 26.5625-.714844 54.636718.996094 83.441406 5.097656 10.308594 1.46875 18.21875 2.832032 26.1875 7.007813.832031.4375 1.703125.882813 2.601562 1.34375 5.296876 2.710937 11.433594 5.867187 15.253907 10.101563-.667969.269531-1.277344.714843-1.734375 1.335937-3.722656 5.089844-10.179688 8.09375-15.394532 10.144531-9.175781 3.609375-19.324218 6.363282-32.90625 8.921875-18.625 3.511719-38.578124 5.796875-62.789062 7.207031-25.382812 1.472657-52.429688 1.847657-78.28125-5.320312-11.867188-3.292969-27.101562-9.949219-32.304688-22.976562-.109374-.269532-.242187-.519532-.398437-.75 1.167969-1.117188 2.417969-2.144532 3.679687-3.039063 13.300782-9.460937 30.484376-12.953125 45.535157-15.121094zm-83.023438 138.898438c-3.976562-33.871094 8.234375-68.476563 31.902344-90.71875 7.832031 5.371093 16.675781 8.519531 23.691406 10.6875.152344.050781.308594.089843.460938.136719-19.9375 37.265624-29.171875 80.820312-26.007813 122.945312.621094 8.261719 1.886719 18.886719 5.515625 29.308594-19.527343-20.042969-32.46875-46.003906-35.5625-72.359375zm37.679688 127.082031c5.210937-11.8125 15.339843-19.476562 22.917969-23.828125.386718-.21875.707031-.507813.988281-.820313.332031.1875.664062.367188 1 .554688-8.203125 5.800781-15.027344 14.691406-19.503907 25.566406-3.210937 7.808594-5.097656 16.109375-6.390624 24.335938-3.023438-7.753906-2.746094-17.34375.988281-25.808594zm5.808593 35.71875c1.414063-11.902344 3.222657-21.875 7.050782-31.175781 4.5625-11.082031 11.78125-19.714844 20.339844-24.328125 5.558593 2.675781 11.300781 5.039062 17.203124 7.074218-7.1875 8.339844-12.25 18.492188-14.5 29.285157-2.277343 10.933593-1.648437 22.425781 1.722657 33.058593-.609375-.152343-1.210938-.296874-1.828125-.449218-10.601563-2.664063-22.199219-6.121094-29.988282-13.464844zm132.132813 22.902344c6.480469-11.671875 9.328125-26.605469 7.292969-39.375-1.453125-9.113282-4.980469-17.480469-8.6875-25.546875 11.058594-2.050781 21.605468-5.21875 31.335937-9.441407.152344.214844.328125.421876.53125.613282 15.011719 14.203125 21.84375 36.425781 17.402344 56.609375-.191406.859375-.082031 1.707031.242187 2.457031-.574218.300781-1.144531.59375-1.695312.867188-13.921875 6.933593-29.460938 11.550781-46.421875 13.816406zm41.292969-79.695313c7.863281 6.351563 16.570312 14.15625 21.496094 23.894531 6.027343 11.917969 4.167968 22.632813.421874 28.683594-1.726562 2.785156-4.066406 5.136719-6.636718 7.140625 3.03125-20.863281-4.132813-42.988281-18.933594-58.03125 1.167969-.601562 2.324219-1.222656 3.46875-1.863281.066406.058594.113281.125.183594.175781zm56.234375-87.757812c-6.304688 28.167969-23.46875 54.058593-46.605469 71.550781 4.097656-7.734375 6.964844-16.890625 8.875-28.058594 8.902344-52.042968 4.371094-99.867187-13.082031-138.453125 8.875-2.464843 17.582031-5.660156 25.960937-9.789062.125.242187.277344.476562.453125.695312 23.050781 28.449219 32.398438 68.320313 24.398438 104.054688zm0 0"/><path d="m82.195312 44.242188c9.847657 3.050781 20.132813 4.589843 30.421876 4.589843 6.398437 0 12.800781-.59375 19.097656-1.789062 6.402344-1.21875 11.359375-2.84375 15.601562-5.117188 5.195313-2.785156 7.75-7 6.839844-11.273437-1.8125-8.507813-11.921875-13.066406-30.054688-13.554688-15.480468-.417968-29.050781 1.714844-41.492187 6.507813-7.160156 2.761719-10.78125 7.722656-9.449219 12.953125 1.351563 5.300781 7.136719 7.09375 9.035156 7.683594zm3.316407-13.113282c10.488281-4.042968 21.917969-6.019531 34.851562-6.019531 1.164063 0 2.335938.015625 3.523438.046875 4.921875.132812 21.078125 1.042969 22.386719 7.175781-.019532.304688-.84375 1.460938-2.765626 2.488281-3.496093 1.875-7.722656 3.242188-13.296874 4.300782-15.136719 2.871094-30.910157 1.980468-45.625-2.582032-3.277344-1.015624-3.585938-1.875-3.609376-1.96875-.132812-.523437 1.347657-2.210937 4.535157-3.441406zm0 0"/><path d="m373.023438 61.269531c6.675781 3.800781 14.222656 5.097657 20.054687 5.800781 5.125.621094 10.292969.929688 15.464844.929688 3.917969 0 7.835937-.179688 11.730469-.535156 5.890624-.539063 13.539062-1.621094 20.433593-5.222656 1.023438-.535157 4.132813-2.160157 4.761719-5.613282.347656-1.910156-.238281-3.558594-.707031-4.632812-4.121094-9.40625-15.859375-12.445313-22.488281-13.417969-11.800782-1.738281-23.910157-.941406-35.011719 2.308594-5.050781 1.476562-12.273438 4.148437-16.667969 10.285156-.449219.625-1.808594 2.527344-1.484375 4.996094.410156 3.105469 3.046875 4.609375 3.914063 5.101562zm16.5-12.644531c9.996093-2.925781 20.917968-3.640625 31.578124-2.070312 3.082032.453124 13.226563 2.382812 16.144532 8.394531-.082032.042969-.167969.09375-.269532.144531-5.648437 2.953125-12.285156 3.871094-17.4375 4.34375-8.472656.773438-17.050781.648438-25.492187-.371094-4.777344-.574218-10.828125-1.582031-16.042969-4.265625 2.335938-2.59375 6.042969-4.578125 11.519532-6.175781zm0 0"/><path d="m488.382812 77.078125c5.582032-6.875 7.367188-15.941406 4.277344-23.101563-2.238281-5.1875-6.625-8.832031-10.195312-11.425781-12.988282-9.441406-26.886719-12.847656-41.601563-16.449219-1.703125-.417968-3.417969-.835937-5.140625-1.269531-15.511718-3.890625-34.195312-4.5625-55.535156-2.003906-11.300781 1.359375-22.082031 3.875-32.042969 7.484375-4.796875 1.738281-10.335937 4.042969-15.054687 7.945312-5.242188 4.335938-8.5625 10.164063-9.117188 15.992188-.519531 5.433594 1.34375 11.199219 5.101563 16.246094-22.277344 31.59375-28.929688 74.628906-17.789063 115.148437 7.441406 27.070313 21.988282 49.722657 41.085938 64.15625-8.648438 8.378907-14.804688 19.234375-17.480469 31-2.601563 11.421875-1.214844 21.933594 3.894531 29.597657 3.902344 5.847656 9.648438 9.679687 14.21875 12.363281 20.417969 11.992187 42.445313 15.28125 60.464844 15.28125 5.148438 0 9.96875-.269531 14.332031-.679688 23.601563-2.21875 42.195313-9.535156 55.261719-21.734375 5.753906-5.375 9.09375-10.734375 10.210938-16.382812 1.527343-7.738282-1.304688-15.207032-3.945313-20.84375-4.859375-10.394532-11.351563-19.828125-19.28125-28.101563.007813-.003906.015625-.011719.019531-.015625.28125-.183594.539063-.402344.769532-.660156 1.308593-1.117188 2.609374-2.261719 3.90625-3.464844 10.683593-9.910156 19.058593-20.757812 24.890624-32.246094 6.226563-12.265624 10.15625-26.4375 11.679688-42.117187 3.214844-33.125-4.929688-66.738281-22.929688-94.71875zm-17.214843 145.046875c-1.234375 7.902344-2.769531 16.078125-6.402344 22.085938-3.242187 2.722656-6.511719 5.160156-9.792969 7.308593.273438-1.316406.484375-2.636719.703125-4.015625.234375-1.484375.476563-3.023437.839844-4.765625 4.742187-22.886719 4.414063-46.460937 3.613281-70.613281-.894531-26.964844-2.359375-53.25-9.910156-78.15625 3.359375-.691406 6.722656-1.496094 10.085938-2.371094 7.15625 23.261719 11.171874 49.214844 12.625 81.605469.609374 13.625.960937 31.503906-1.761719 48.921875zm-61.832031 107.789062c-3.246094-.09375-6.601563-.3125-10.039063-.683593-1.84375-4.59375-1.875-10.023438-1.613281-15.222657.746094-14.734374 3.535156-29.265624 8.242187-43.238281 2.113281.257813 4.195313.441407 6.242188.558594-3.507813 19.328125-4.457031 39.011719-2.832031 58.585937zm-43.824219-81.015624c-.03125-.070313-.042969-.144532-.078125-.210938-4.375-9.246094-5.144532-19.960938-5.558594-30.140625-1.816406-44.722656 2.765625-86.90625 13.59375-125.417969 7.621094 1.890625 15.472656 3.210938 23.492188 3.960938l-3.3125 109.253906c-.371094 12.335938-.757813 25.09375-.308594 37.695312.1875 5.304688.539062 10.90625 1.578125 16.527344-.21875-.054687-.4375-.101562-.65625-.15625-10.664063-2.644531-20.289063-6.519531-28.75-11.511718zm-14.78125-11.222657c-2.785157-3.65625-4.144531-8.535156-5.203125-12.820312-10.277344-41.703125-5.738282-90.042969 12.75-136.363281 2.445312.894531 4.917968 1.722656 7.417968 2.488281-11.046874 39.320312-15.726562 82.335937-13.875 127.894531.296876 7.289062.78125 14.851562 2.527344 22.210938-1.105468-.910157-2.191406-1.851563-3.257812-2.824219-.105469-.199219-.21875-.398438-.359375-.585938zm60.109375-24.808593c-.125 2.605468-.265625 5.210937-.398438 7.820312-.726562 13.863281-1.460937 28.175781-.804687 42.375-2-.183594-4.03125-.4375-6.101563-.761719-1.496094-6.140625-1.921875-12.53125-2.136718-18.546875-.4375-12.339844-.058594-24.957031.3125-37.171875l3.300781-108.929687c2.519531.113281 5.054687.175781 7.601562.179687-.003906.074219-.023437.148438-.023437.222657.058594 37.667968.121094 76.613281-1.75 114.8125zm6.878906 50.542968c-.695312-14.039062.042969-28.398437.773438-42.300781.136718-2.617187.273437-5.234375.402343-7.847656 1.878907-38.402344 1.816407-77.453125 1.757813-115.21875 0-.136719-.027344-.265625-.042969-.398438 7.148437-.308593 14.367187-1.054687 21.617187-2.226562 7.507813 24.238281 8.960938 50.246093 9.84375 76.976562.785157 23.644531 1.113282 46.691407-3.453124 68.710938-.398438 1.925781-.667969 3.632812-.90625 5.140625-.648438 4.101562-1.074219 6.808594-3.476563 10.660156-.144531.234375-.265625.480469-.359375.730469-4.660156 2.105469-9.339844 3.636719-14.023438 4.570312-3.839843.765625-7.890624 1.164063-12.132812 1.203125zm43.40625-180.355468c-38.3125 10.609374-76.945312 8.601562-108.777344-5.648438-4.0625-1.816406-9.253906-4.371094-13.382812-8.015625-1.859375-1.644531-3.386719-3.453125-4.539063-5.332031 3.058594 2.78125 6.949219 5.320312 11.667969 7.597656 17.101562 8.246094 37.390625 12.292969 61.761719 12.292969 3.808593 0 7.726562-.097657 11.738281-.296875 28.671875-1.410156 50.386719-7.855469 66.292969-19.648438-.695313 3.753906-2.871094 7.394532-5.519531 9.882813-5.09375 4.789062-12.257813 7.238281-19.242188 9.167969zm-122.898438-38.585938c3.769532-3.117188 8.519532-5.074219 12.667969-6.578125h-.003906c9.386719-3.398437 19.5625-5.773437 30.253906-7.054687 20.074219-2.410157 38.269531-1.78125 52.617188 1.816406 1.738281.4375 3.464843.859375 5.183593 1.28125 13.921876 3.40625 27.074219 6.628906 38.777344 15.136718 2.371094 1.722657 4.898438 3.789063 6.546875 6.316407-.425781.144531-.839843.351562-1.214843.648437-14.714844 11.777344-35.601563 18.175782-63.855469 19.566406-28.300781 1.394532-51.070313-2.273437-69.601563-11.207031-8.785156-4.234375-13.863281-9.1875-15.089844-14.71875-.058593-.265625-.144531-.519531-.25-.761719 1.023438-1.59375 2.355469-3.109374 3.96875-4.445312zm-3.425781 31.9375c4.683594 3.820312 10.019531 6.464844 14.253907 8.363281.570312.253907 1.15625.496094 1.730468.742188-18.324218 45.921875-23.351562 93.871093-14.304687 135.941406-7.570313-10.921875-13.523438-23.769531-17.421875-37.945313-10.359375-37.683593-4.460938-77.578124 15.742187-107.101562zm7.953125 206.179688c2.449219-10.769532 8.242188-20.671876 16.394532-28.105469 2.242187 1.402343 4.566406 2.722656 6.960937 3.96875-13.078125 12.90625-20.015625 31.445312-18.878906 49.71875-.640625-.734375-1.226563-1.480469-1.738281-2.246094-5.222657-7.828125-3.957032-17.980469-2.738282-23.335937zm13.558594 32.75c-3.996094-18.917969 3.023438-40.226563 17.488281-53.058594.054688-.042969.089844-.101563.140625-.148438 5.769532 2.441406 11.894532 4.496094 18.378906 6.105469 1.867188.464844 3.710938.867187 5.539063 1.230469-4.683594 14.285156-7.464844 29.109375-8.226563 44.136718-.238281 4.695313-.261718 9.601563.835938 14.355469-10.992188-2.007812-22.457031-5.734375-33.378906-12.148437-.273438-.160156-.515625-.316406-.777344-.472656zm70.730469 14c-2.992188.28125-6.214844.488281-9.617188.585937-1.683593-19.554687-.699219-39.226563 2.929688-58.519531 3.828125-.15625 7.523437-.582032 11.070312-1.289063 5.953125-1.183593 11.871094-3.214843 17.726563-6.046875 4.664062 4.398438 9.816406 9.714844 13.460937 16.109375 5.871094 10.304688 6.152344 27.363281 3.058594 38.171875-10.410156 5.859375-23.332031 9.546875-38.628906 10.988282zm54.984375-47.523438c2.117187 4.527344 4.410156 10.425781 3.335937 15.867188-.777343 3.933593-3.332031 7.875-7.804687 12.054687-.773438.722656-1.574219 1.421875-2.390625 2.105469 1.464843-11.625.175781-25.609375-5.546875-35.652344-3.648438-6.402344-8.609375-11.839844-13.035156-16.160156 2.375-1.441406 4.738281-3.019532 7.089843-4.730469 7.570313 7.773437 13.75 16.683594 18.351563 26.515625zm21.261718-110.796875c-1.425781 14.675781-5.074218 27.878906-10.84375 39.246094-3.773437 7.425781-8.738281 14.574219-14.773437 21.371093.570313-2.746093 1.03125-5.519531 1.460937-8.261718 2.835938-18.128906 2.480469-36.527344 1.851563-50.53125-1.476563-33.007813-5.589844-59.550782-12.921875-83.433594 5.003906-1.605469 9.945312-3.664062 14.300781-6.765625 16.492188 26.222656 23.917969 57.523437 20.925781 88.375zm0 0"/></svg>